<mxfile host="app.diagrams.net" modified="2024-05-30T18:23:13.183Z" agent="Mozilla/5.0 (Windows NT 10.0; Win64; x64) AppleWebKit/537.36 (KHTML, like Gecko) Chrome/124.0.0.0 Safari/537.36" etag="hJrfE_OIr1RYS_1xmlCQ" version="24.4.10" type="device">
  <diagram name="Страница — 1" id="gIRnBwt8_lw0766poCTz">
    <mxGraphModel dx="522" dy="588" grid="1" gridSize="10" guides="1" tooltips="1" connect="1" arrows="1" fold="1" page="1" pageScale="1" pageWidth="827" pageHeight="1169" math="0" shadow="0">
      <root>
        <mxCell id="0" />
        <mxCell id="1" parent="0" />
        <mxCell id="DZugXDsyEf0yiA_qYAde-7" style="edgeStyle=none;curved=1;rounded=0;orthogonalLoop=1;jettySize=auto;html=1;fontSize=12;startSize=8;endSize=8;" edge="1" parent="1" source="DZugXDsyEf0yiA_qYAde-1" target="DZugXDsyEf0yiA_qYAde-2">
          <mxGeometry relative="1" as="geometry" />
        </mxCell>
        <mxCell id="DZugXDsyEf0yiA_qYAde-1" value="" style="ellipse;whiteSpace=wrap;html=1;aspect=fixed;" vertex="1" parent="1">
          <mxGeometry x="160" y="40" width="40" height="40" as="geometry" />
        </mxCell>
        <mxCell id="DZugXDsyEf0yiA_qYAde-8" style="edgeStyle=none;curved=1;rounded=0;orthogonalLoop=1;jettySize=auto;html=1;fontSize=12;startSize=8;endSize=8;" edge="1" parent="1" source="DZugXDsyEf0yiA_qYAde-2" target="DZugXDsyEf0yiA_qYAde-3">
          <mxGeometry relative="1" as="geometry" />
        </mxCell>
        <mxCell id="DZugXDsyEf0yiA_qYAde-2" value="Извлечение значений из DataFrame" style="rounded=0;whiteSpace=wrap;html=1;" vertex="1" parent="1">
          <mxGeometry x="115" y="100" width="130" height="40" as="geometry" />
        </mxCell>
        <mxCell id="DZugXDsyEf0yiA_qYAde-9" style="edgeStyle=none;curved=1;rounded=0;orthogonalLoop=1;jettySize=auto;html=1;fontSize=12;startSize=8;endSize=8;" edge="1" parent="1" source="DZugXDsyEf0yiA_qYAde-3" target="DZugXDsyEf0yiA_qYAde-4">
          <mxGeometry relative="1" as="geometry" />
        </mxCell>
        <mxCell id="DZugXDsyEf0yiA_qYAde-3" value="Суммирование всех значений параметра" style="rounded=0;whiteSpace=wrap;html=1;" vertex="1" parent="1">
          <mxGeometry x="115" y="160" width="130" height="40" as="geometry" />
        </mxCell>
        <mxCell id="DZugXDsyEf0yiA_qYAde-10" style="edgeStyle=none;curved=1;rounded=0;orthogonalLoop=1;jettySize=auto;html=1;fontSize=12;startSize=8;endSize=8;" edge="1" parent="1" source="DZugXDsyEf0yiA_qYAde-4" target="DZugXDsyEf0yiA_qYAde-5">
          <mxGeometry relative="1" as="geometry" />
        </mxCell>
        <mxCell id="DZugXDsyEf0yiA_qYAde-4" value="Деление суммы на общее количество наблюдений" style="rounded=0;whiteSpace=wrap;html=1;" vertex="1" parent="1">
          <mxGeometry x="115" y="220" width="130" height="50" as="geometry" />
        </mxCell>
        <mxCell id="DZugXDsyEf0yiA_qYAde-11" style="edgeStyle=none;curved=1;rounded=0;orthogonalLoop=1;jettySize=auto;html=1;entryX=0.5;entryY=0;entryDx=0;entryDy=0;fontSize=12;startSize=8;endSize=8;" edge="1" parent="1" source="DZugXDsyEf0yiA_qYAde-5" target="DZugXDsyEf0yiA_qYAde-6">
          <mxGeometry relative="1" as="geometry" />
        </mxCell>
        <mxCell id="DZugXDsyEf0yiA_qYAde-5" value="Получение результирующего значения&amp;nbsp;" style="rounded=0;whiteSpace=wrap;html=1;" vertex="1" parent="1">
          <mxGeometry x="115" y="290" width="130" height="50" as="geometry" />
        </mxCell>
        <mxCell id="DZugXDsyEf0yiA_qYAde-6" value="" style="ellipse;whiteSpace=wrap;html=1;aspect=fixed;" vertex="1" parent="1">
          <mxGeometry x="160" y="360" width="40" height="40" as="geometry" />
        </mxCell>
      </root>
    </mxGraphModel>
  </diagram>
</mxfile>
